<?xml version="1.0" encoding="utf-8" ?><svg xmlns="http://www.w3.org/2000/svg" xmlns:xlink="http://www.w3.org/1999/xlink" width="1024" height="1024" viewBox="0 0 1024 1024"><path fill="#3370A5" d="M335.132 259.744L586.262 259.707L656.254 259.679C669.835 259.667 685.985 259.06 699.126 260.776C712.677 262.547 728.279 270.724 738.404 279.685C752.731 292.366 763.202 313.481 763.888 332.692C764.213 341.761 764.03 351.794 764.02 360.995L764.021 410.253L764.056 562.193L764.065 649.445C764.072 662.086 764.764 687.186 762.994 698.357C760.659 713.59 753.808 727.772 743.328 739.07C729.592 754.091 710.459 763.052 690.125 763.985C660.193 764.379 629.661 764.074 599.694 764.073L438.805 764.071L365.531 764.071C353.598 764.089 336.493 765.002 325.098 763.277C289.033 757.817 261.624 725.437 259.912 689.347C259.484 680.327 259.604 671.291 259.622 662.187L259.672 619.152L259.666 477.443L259.653 379.708C259.652 366.565 258.949 337.57 260.726 325.811C262.852 311.445 269.09 298.001 278.686 287.101C294.115 269.559 312.11 261.29 335.132 259.744ZM455.264 580.444C444.186 570.605 368.373 492.352 364.369 490.905L362.885 491.13C361.4 495.596 362.624 561.696 362.135 570.676C362.091 571.484 362.375 574.981 362.968 575.759C363.425 576.359 364.174 577.275 364.77 577.914L423.395 636.26C433.66 646.491 445.932 658.123 455.763 668.524L521.888 602.66L543.048 581.62C546.01 578.671 552.365 572.614 554.695 569.552C554.521 549.454 554.476 529.356 554.558 509.257C554.577 504.194 555.547 485.5 554.182 482.318L553.616 481.844C544.431 489.867 535.014 500.351 526.288 508.996L455.264 580.444Z"/><path fill="#FEFEFE" d="M567.957 354.408C571.937 358.231 575.941 362.179 579.762 366.161C606.209 393.725 634.694 420.032 661.1 447.554C660.995 477.009 661.067 506.464 661.314 535.918C656.804 531.048 652.012 526.214 647.27 521.557C620.823 495.583 595.208 468.426 568.469 442.774L562.32 449.013C550.657 461.452 537.628 474.09 525.52 486.253L469.178 542.764C468.809 533.083 469.044 522.045 469.035 512.213L468.887 453.968L567.957 354.408Z"/></svg>